<mxfile host="app.diagrams.net" modified="2023-10-22T01:57:17.612Z" agent="Mozilla/5.0 (Macintosh; Intel Mac OS X 10_15_7) AppleWebKit/537.36 (KHTML, like Gecko) Chrome/118.0.0.0 Safari/537.36" etag="Z5EJy6SlWfcOJrze2qoq" version="22.0.6" type="github">
  <diagram name="Page-1" id="2YBvvXClWsGukQMizWep">
    <mxGraphModel dx="555" dy="284" grid="1" gridSize="10" guides="1" tooltips="1" connect="1" arrows="1" fold="1" page="1" pageScale="1" pageWidth="850" pageHeight="1100" math="0" shadow="0">
      <root>
        <mxCell id="0" />
        <mxCell id="1" parent="0" />
        <mxCell id="VA8ESlMPsgv-YUdh809d-1" value="main()" style="rounded=0;whiteSpace=wrap;html=1;" vertex="1" parent="1">
          <mxGeometry x="340" y="10" width="120" height="60" as="geometry" />
        </mxCell>
        <mxCell id="VA8ESlMPsgv-YUdh809d-17" value="" style="endArrow=none;html=1;rounded=0;entryX=0.5;entryY=1;entryDx=0;entryDy=0;" edge="1" parent="1" target="VA8ESlMPsgv-YUdh809d-1">
          <mxGeometry width="50" height="50" relative="1" as="geometry">
            <mxPoint x="400" y="120" as="sourcePoint" />
            <mxPoint x="450" y="290" as="targetPoint" />
          </mxGeometry>
        </mxCell>
        <mxCell id="VA8ESlMPsgv-YUdh809d-38" value="" style="group" vertex="1" connectable="0" parent="1">
          <mxGeometry x="310" y="120" width="70" height="90" as="geometry" />
        </mxCell>
        <mxCell id="VA8ESlMPsgv-YUdh809d-27" value="" style="group" vertex="1" connectable="0" parent="VA8ESlMPsgv-YUdh809d-38">
          <mxGeometry x="5" width="60" height="70" as="geometry" />
        </mxCell>
        <mxCell id="VA8ESlMPsgv-YUdh809d-21" value="" style="endArrow=none;html=1;rounded=0;" edge="1" parent="VA8ESlMPsgv-YUdh809d-27">
          <mxGeometry width="50" height="50" relative="1" as="geometry">
            <mxPoint x="30" y="50" as="sourcePoint" />
            <mxPoint x="29.75" as="targetPoint" />
          </mxGeometry>
        </mxCell>
        <mxCell id="VA8ESlMPsgv-YUdh809d-4" value="step_3()" style="rounded=0;whiteSpace=wrap;html=1;" vertex="1" parent="VA8ESlMPsgv-YUdh809d-38">
          <mxGeometry y="50" width="70" height="40" as="geometry" />
        </mxCell>
        <mxCell id="VA8ESlMPsgv-YUdh809d-39" value="" style="group" vertex="1" connectable="0" parent="1">
          <mxGeometry x="230" y="120" width="70" height="90" as="geometry" />
        </mxCell>
        <mxCell id="VA8ESlMPsgv-YUdh809d-40" value="" style="group" vertex="1" connectable="0" parent="VA8ESlMPsgv-YUdh809d-39">
          <mxGeometry x="5" width="60" height="70" as="geometry" />
        </mxCell>
        <mxCell id="VA8ESlMPsgv-YUdh809d-41" value="" style="endArrow=none;html=1;rounded=0;" edge="1" parent="VA8ESlMPsgv-YUdh809d-40">
          <mxGeometry width="50" height="50" relative="1" as="geometry">
            <mxPoint x="30" y="50" as="sourcePoint" />
            <mxPoint x="29.75" as="targetPoint" />
          </mxGeometry>
        </mxCell>
        <mxCell id="VA8ESlMPsgv-YUdh809d-42" value="step_2()" style="rounded=0;whiteSpace=wrap;html=1;" vertex="1" parent="VA8ESlMPsgv-YUdh809d-39">
          <mxGeometry y="50" width="70" height="40" as="geometry" />
        </mxCell>
        <mxCell id="VA8ESlMPsgv-YUdh809d-47" value="step_1()" style="rounded=0;whiteSpace=wrap;html=1;" vertex="1" parent="1">
          <mxGeometry x="150" y="170" width="70" height="40" as="geometry" />
        </mxCell>
        <mxCell id="VA8ESlMPsgv-YUdh809d-45" value="" style="group" vertex="1" connectable="0" parent="1">
          <mxGeometry x="155" y="120" width="60" height="70" as="geometry" />
        </mxCell>
        <mxCell id="VA8ESlMPsgv-YUdh809d-46" value="" style="endArrow=none;html=1;rounded=0;" edge="1" parent="VA8ESlMPsgv-YUdh809d-45">
          <mxGeometry width="50" height="50" relative="1" as="geometry">
            <mxPoint x="30" y="50" as="sourcePoint" />
            <mxPoint x="29.75" as="targetPoint" />
          </mxGeometry>
        </mxCell>
        <mxCell id="VA8ESlMPsgv-YUdh809d-51" value="step_4()" style="rounded=0;whiteSpace=wrap;html=1;" vertex="1" parent="1">
          <mxGeometry x="390" y="170" width="70" height="40" as="geometry" />
        </mxCell>
        <mxCell id="VA8ESlMPsgv-YUdh809d-49" value="" style="group" vertex="1" connectable="0" parent="1">
          <mxGeometry x="395" y="120" width="60" height="70" as="geometry" />
        </mxCell>
        <mxCell id="VA8ESlMPsgv-YUdh809d-50" value="" style="endArrow=none;html=1;rounded=0;" edge="1" parent="VA8ESlMPsgv-YUdh809d-49">
          <mxGeometry width="50" height="50" relative="1" as="geometry">
            <mxPoint x="30" y="50" as="sourcePoint" />
            <mxPoint x="29.75" as="targetPoint" />
          </mxGeometry>
        </mxCell>
        <mxCell id="VA8ESlMPsgv-YUdh809d-52" value="" style="group" vertex="1" connectable="0" parent="1">
          <mxGeometry x="475" y="120" width="60" height="70" as="geometry" />
        </mxCell>
        <mxCell id="VA8ESlMPsgv-YUdh809d-53" value="" style="endArrow=none;html=1;rounded=0;" edge="1" parent="VA8ESlMPsgv-YUdh809d-52">
          <mxGeometry width="50" height="50" relative="1" as="geometry">
            <mxPoint x="30" y="50" as="sourcePoint" />
            <mxPoint x="29.75" as="targetPoint" />
          </mxGeometry>
        </mxCell>
        <mxCell id="VA8ESlMPsgv-YUdh809d-54" value="step_5()" style="rounded=0;whiteSpace=wrap;html=1;" vertex="1" parent="1">
          <mxGeometry x="470" y="170" width="70" height="40" as="geometry" />
        </mxCell>
        <mxCell id="VA8ESlMPsgv-YUdh809d-55" value="" style="group" vertex="1" connectable="0" parent="1">
          <mxGeometry x="555" y="120" width="60" height="70" as="geometry" />
        </mxCell>
        <mxCell id="VA8ESlMPsgv-YUdh809d-56" value="" style="endArrow=none;html=1;rounded=0;" edge="1" parent="VA8ESlMPsgv-YUdh809d-55">
          <mxGeometry width="50" height="50" relative="1" as="geometry">
            <mxPoint x="30" y="50" as="sourcePoint" />
            <mxPoint x="29.75" as="targetPoint" />
          </mxGeometry>
        </mxCell>
        <mxCell id="VA8ESlMPsgv-YUdh809d-57" value="step_6()" style="rounded=0;whiteSpace=wrap;html=1;" vertex="1" parent="1">
          <mxGeometry x="550" y="170" width="70" height="40" as="geometry" />
        </mxCell>
        <mxCell id="VA8ESlMPsgv-YUdh809d-58" value="" style="group" vertex="1" connectable="0" parent="1">
          <mxGeometry x="635" y="120" width="60" height="70" as="geometry" />
        </mxCell>
        <mxCell id="VA8ESlMPsgv-YUdh809d-59" value="" style="endArrow=none;html=1;rounded=0;" edge="1" parent="VA8ESlMPsgv-YUdh809d-58">
          <mxGeometry width="50" height="50" relative="1" as="geometry">
            <mxPoint x="30" y="50" as="sourcePoint" />
            <mxPoint x="29.75" as="targetPoint" />
          </mxGeometry>
        </mxCell>
        <mxCell id="VA8ESlMPsgv-YUdh809d-60" value="step_7()" style="rounded=0;whiteSpace=wrap;html=1;" vertex="1" parent="1">
          <mxGeometry x="630" y="170" width="70" height="40" as="geometry" />
        </mxCell>
        <mxCell id="VA8ESlMPsgv-YUdh809d-61" value="" style="group" vertex="1" connectable="0" parent="1">
          <mxGeometry x="720" y="120" width="60" height="70" as="geometry" />
        </mxCell>
        <mxCell id="VA8ESlMPsgv-YUdh809d-62" value="" style="endArrow=none;html=1;rounded=0;" edge="1" parent="VA8ESlMPsgv-YUdh809d-61">
          <mxGeometry width="50" height="50" relative="1" as="geometry">
            <mxPoint x="30" y="50" as="sourcePoint" />
            <mxPoint x="29.75" as="targetPoint" />
          </mxGeometry>
        </mxCell>
        <mxCell id="VA8ESlMPsgv-YUdh809d-63" value="goodbye_&lt;br&gt;message()" style="rounded=0;whiteSpace=wrap;html=1;" vertex="1" parent="1">
          <mxGeometry x="716" y="170" width="70" height="40" as="geometry" />
        </mxCell>
        <mxCell id="VA8ESlMPsgv-YUdh809d-64" value="" style="group" vertex="1" connectable="0" parent="1">
          <mxGeometry x="75" y="120" width="60" height="70" as="geometry" />
        </mxCell>
        <mxCell id="VA8ESlMPsgv-YUdh809d-65" value="" style="endArrow=none;html=1;rounded=0;" edge="1" parent="VA8ESlMPsgv-YUdh809d-64">
          <mxGeometry width="50" height="50" relative="1" as="geometry">
            <mxPoint x="25.13" y="50" as="sourcePoint" />
            <mxPoint x="24.88" as="targetPoint" />
          </mxGeometry>
        </mxCell>
        <mxCell id="VA8ESlMPsgv-YUdh809d-66" value="startup&lt;br&gt;message()" style="rounded=0;whiteSpace=wrap;html=1;" vertex="1" parent="1">
          <mxGeometry x="65" y="170" width="70" height="40" as="geometry" />
        </mxCell>
        <mxCell id="VA8ESlMPsgv-YUdh809d-67" value="" style="endArrow=none;html=1;rounded=0;" edge="1" parent="1">
          <mxGeometry width="50" height="50" relative="1" as="geometry">
            <mxPoint x="100" y="120" as="sourcePoint" />
            <mxPoint x="750" y="119" as="targetPoint" />
          </mxGeometry>
        </mxCell>
      </root>
    </mxGraphModel>
  </diagram>
</mxfile>
